<mxfile host="app.diagrams.net" modified="2023-06-23T05:26:17.406Z" agent="Mozilla/5.0 (Windows NT 10.0; Win64; x64) AppleWebKit/537.36 (KHTML, like Gecko) Chrome/114.0.0.0 Safari/537.36" etag="32oTXYx9wdrqB2QVqk41" version="21.5.0" type="google">
  <diagram id="od8Rnb8N7IRgNO0WA-l_" name="ページ1">
    <mxGraphModel grid="1" page="1" gridSize="10" guides="1" tooltips="1" connect="1" arrows="1" fold="1" pageScale="1" pageWidth="827" pageHeight="1169" math="0" shadow="0">
      <root>
        <mxCell id="0" />
        <mxCell id="1" parent="0" />
        <mxCell id="UtOP1kqGwqF7ZHsXyCKP-1" style="edgeStyle=orthogonalEdgeStyle;rounded=0;orthogonalLoop=1;jettySize=auto;html=1;" edge="1" parent="1" source="nU_rdTN2ys85tmJCLOdz-10" target="EX_xdqJNYYm2CHZNdzQD-21">
          <mxGeometry relative="1" as="geometry">
            <Array as="points">
              <mxPoint x="-920" y="1120" />
              <mxPoint x="-920" y="360" />
            </Array>
            <mxPoint x="-140" y="360" as="targetPoint" />
            <mxPoint x="-1120" y="1120.05" as="sourcePoint" />
          </mxGeometry>
        </mxCell>
        <mxCell id="UtOP1kqGwqF7ZHsXyCKP-7" style="edgeStyle=orthogonalEdgeStyle;rounded=0;orthogonalLoop=1;jettySize=auto;html=1;" edge="1" parent="1" source="nU_rdTN2ys85tmJCLOdz-10" target="EX_xdqJNYYm2CHZNdzQD-23">
          <mxGeometry relative="1" as="geometry">
            <Array as="points">
              <mxPoint x="-920" y="1120" />
              <mxPoint x="-920" y="1440" />
            </Array>
            <mxPoint x="-139.99999999999955" y="1440" as="targetPoint" />
            <mxPoint x="-1120" y="1120.05" as="sourcePoint" />
          </mxGeometry>
        </mxCell>
        <mxCell id="nU_rdTN2ys85tmJCLOdz-2" value="" style="fillColor=none;strokeColor=#1490df;verticalAlign=top;fontStyle=0;fontColor=#5A6C86;fontFamily=Helvetica;fontSize=12;align=left;" vertex="1" parent="1">
          <mxGeometry x="-1240" y="920" width="200" height="400" as="geometry" />
        </mxCell>
        <mxCell id="nU_rdTN2ys85tmJCLOdz-1" value="Azure Cloud" style="fillColor=none;strokeColor=#000000;verticalAlign=top;fontStyle=0;fontColor=#000000;fontFamily=Helvetica;fontSize=12;align=left;" vertex="1" parent="1">
          <mxGeometry x="-1280" y="880" width="280" height="480" as="geometry" />
        </mxCell>
        <mxCell id="UtOP1kqGwqF7ZHsXyCKP-2" style="edgeStyle=orthogonalEdgeStyle;rounded=0;orthogonalLoop=1;jettySize=auto;html=1;" edge="1" parent="1" source="nU_rdTN2ys85tmJCLOdz-11" target="EX_xdqJNYYm2CHZNdzQD-21">
          <mxGeometry relative="1" as="geometry">
            <Array as="points">
              <mxPoint x="-1080" y="1021" />
              <mxPoint x="-1080" y="1120" />
              <mxPoint x="-920" y="1120" />
              <mxPoint x="-920" y="360" />
            </Array>
            <mxPoint x="-140" y="360" as="targetPoint" />
            <mxPoint x="-1120" y="1027.05" as="sourcePoint" />
          </mxGeometry>
        </mxCell>
        <mxCell id="EX_xdqJNYYm2CHZNdzQD-35" value="Azure Cloud" style="fillColor=none;strokeColor=#000000;verticalAlign=top;fontStyle=0;fontColor=#000000;fontFamily=Helvetica;fontSize=12;align=left;" vertex="1" parent="1">
          <mxGeometry x="-680" y="80" width="1480" height="1000" as="geometry" />
        </mxCell>
        <mxCell id="EX_xdqJNYYm2CHZNdzQD-36" value="Azure Cloud" style="fillColor=none;strokeColor=#000000;verticalAlign=top;fontStyle=0;fontColor=#000000;fontFamily=Helvetica;fontSize=12;align=left;" vertex="1" parent="1">
          <mxGeometry x="-680" y="1160" width="1480" height="1000" as="geometry" />
        </mxCell>
        <mxCell id="EX_xdqJNYYm2CHZNdzQD-37" value="" style="fillColor=none;strokeColor=#1490df;verticalAlign=top;fontStyle=0;fontColor=#5A6C86;fontFamily=Helvetica;fontSize=12;align=left;" vertex="1" parent="1">
          <mxGeometry x="-640" y="1360" width="1080" height="760" as="geometry" />
        </mxCell>
        <mxCell id="EX_xdqJNYYm2CHZNdzQD-26" value="AKS Cluster" style="fillColor=none;strokeColor=#a265ec;dashed=1;verticalAlign=top;fontStyle=0;fontColor=#7a3ddd;strokeWidth=1;" vertex="1" parent="1">
          <mxGeometry x="-440" y="440" width="840" height="440" as="geometry" />
        </mxCell>
        <mxCell id="EX_xdqJNYYm2CHZNdzQD-32" value="" style="fillColor=none;strokeColor=#1490df;verticalAlign=top;fontStyle=0;fontColor=#5A6C86;fontFamily=Helvetica;fontSize=12;align=left;" vertex="1" parent="1">
          <mxGeometry x="-640" y="280" width="1080" height="760" as="geometry" />
        </mxCell>
        <mxCell id="EX_xdqJNYYm2CHZNdzQD-29" value="AKS Cluster" style="fillColor=none;strokeColor=#a265ec;dashed=1;verticalAlign=top;fontStyle=0;fontColor=#7a3ddd;strokeWidth=1;" vertex="1" parent="1">
          <mxGeometry x="-440" y="1520" width="840" height="440" as="geometry" />
        </mxCell>
        <mxCell id="UtOP1kqGwqF7ZHsXyCKP-4" style="edgeStyle=orthogonalEdgeStyle;rounded=0;orthogonalLoop=1;jettySize=auto;html=1;" edge="1" parent="1" source="nU_rdTN2ys85tmJCLOdz-1" target="EX_xdqJNYYm2CHZNdzQD-23">
          <mxGeometry relative="1" as="geometry">
            <Array as="points">
              <mxPoint x="-920" y="1120" />
              <mxPoint x="-920" y="1440" />
            </Array>
            <mxPoint x="-139.99999999999955" y="1440" as="targetPoint" />
            <mxPoint x="-1120" y="1027.05" as="sourcePoint" />
          </mxGeometry>
        </mxCell>
        <mxCell id="UtOP1kqGwqF7ZHsXyCKP-8" style="edgeStyle=orthogonalEdgeStyle;rounded=0;orthogonalLoop=1;jettySize=auto;html=1;" edge="1" parent="1" source="nU_rdTN2ys85tmJCLOdz-1" target="EX_xdqJNYYm2CHZNdzQD-23">
          <mxGeometry relative="1" as="geometry">
            <Array as="points">
              <mxPoint x="-920" y="1120" />
              <mxPoint x="-920" y="1440" />
            </Array>
            <mxPoint x="-139.99999999999955" y="1440" as="targetPoint" />
            <mxPoint x="-1120" y="1212.95" as="sourcePoint" />
          </mxGeometry>
        </mxCell>
        <mxCell id="UtOP1kqGwqF7ZHsXyCKP-3" style="edgeStyle=orthogonalEdgeStyle;rounded=0;orthogonalLoop=1;jettySize=auto;html=1;" edge="1" parent="1" source="nU_rdTN2ys85tmJCLOdz-12" target="EX_xdqJNYYm2CHZNdzQD-21">
          <mxGeometry relative="1" as="geometry">
            <Array as="points">
              <mxPoint x="-1080" y="1220" />
              <mxPoint x="-1080" y="1120" />
              <mxPoint x="-920" y="1120" />
              <mxPoint x="-920" y="360" />
            </Array>
            <mxPoint x="-140" y="360" as="targetPoint" />
            <mxPoint x="-1120" y="1212.95" as="sourcePoint" />
          </mxGeometry>
        </mxCell>
        <mxCell id="XumjTPw2hBYQ-sRrh7FU-35" style="edgeStyle=orthogonalEdgeStyle;rounded=0;orthogonalLoop=1;jettySize=auto;html=1;fontFamily=Helvetica;fontSize=12;fontColor=#D05C17;" edge="1" parent="1" source="nU_rdTN2ys85tmJCLOdz-9" target="EX_xdqJNYYm2CHZNdzQD-30">
          <mxGeometry relative="1" as="geometry">
            <mxPoint x="-600" y="580" as="targetPoint" />
            <mxPoint x="-763.636363636364" y="580" as="sourcePoint" />
          </mxGeometry>
        </mxCell>
        <mxCell id="eG7ZQN_vo8qLT-gt9y6S-61" style="edgeStyle=orthogonalEdgeStyle;rounded=0;orthogonalLoop=1;jettySize=auto;html=1;" edge="1" parent="1" source="nU_rdTN2ys85tmJCLOdz-9" target="EX_xdqJNYYm2CHZNdzQD-27">
          <mxGeometry relative="1" as="geometry">
            <Array as="points">
              <mxPoint x="-720" y="580" />
              <mxPoint x="-720" y="480" />
            </Array>
            <mxPoint x="-440.00000000000045" y="480" as="targetPoint" />
            <mxPoint x="-763.636363636364" y="580" as="sourcePoint" />
          </mxGeometry>
        </mxCell>
        <mxCell id="XumjTPw2hBYQ-sRrh7FU-36" value="Managed databases" style="fillColor=none;strokeColor=#5A6C86;dashed=1;verticalAlign=top;fontStyle=0;fontColor=#5A6C86;fontFamily=Helvetica;fontSize=12;" vertex="1" parent="1">
          <mxGeometry x="600" y="320" width="160" height="560" as="geometry" />
        </mxCell>
        <mxCell id="eG7ZQN_vo8qLT-gt9y6S-23" style="edgeStyle=orthogonalEdgeStyle;rounded=0;orthogonalLoop=1;jettySize=auto;html=1;" edge="1" parent="1" source="nU_rdTN2ys85tmJCLOdz-18" target="EX_xdqJNYYm2CHZNdzQD-4">
          <mxGeometry relative="1" as="geometry">
            <Array as="points">
              <mxPoint x="560" y="600" />
              <mxPoint x="560" y="440" />
            </Array>
            <mxPoint x="640" y="440" as="targetPoint" />
            <mxPoint x="320" y="600.0666666666666" as="sourcePoint" />
          </mxGeometry>
        </mxCell>
        <mxCell id="eG7ZQN_vo8qLT-gt9y6S-40" style="edgeStyle=orthogonalEdgeStyle;rounded=0;orthogonalLoop=1;jettySize=auto;html=1;" edge="1" parent="1" source="nU_rdTN2ys85tmJCLOdz-18" target="EX_xdqJNYYm2CHZNdzQD-6">
          <mxGeometry relative="1" as="geometry">
            <Array as="points">
              <mxPoint x="560" y="600" />
              <mxPoint x="560" y="760" />
            </Array>
            <mxPoint x="640" y="759.9565217391307" as="targetPoint" />
            <mxPoint x="320" y="600.0666666666666" as="sourcePoint" />
          </mxGeometry>
        </mxCell>
        <mxCell id="eG7ZQN_vo8qLT-gt9y6S-41" style="edgeStyle=orthogonalEdgeStyle;rounded=0;orthogonalLoop=1;jettySize=auto;html=1;" edge="1" parent="1" source="nU_rdTN2ys85tmJCLOdz-18" target="EX_xdqJNYYm2CHZNdzQD-5">
          <mxGeometry relative="1" as="geometry">
            <Array as="points" />
            <mxPoint x="640" y="600.0434782608697" as="targetPoint" />
            <mxPoint x="320" y="600.0666666666666" as="sourcePoint" />
          </mxGeometry>
        </mxCell>
        <mxCell id="eG7ZQN_vo8qLT-gt9y6S-33" style="edgeStyle=orthogonalEdgeStyle;rounded=0;orthogonalLoop=1;jettySize=auto;html=1;entryX=0.5;entryY=1;entryDx=0;entryDy=0;entryPerimeter=0;" edge="1" parent="1" source="XumjTPw2hBYQ-sRrh7FU-18" target="nU_rdTN2ys85tmJCLOdz-17">
          <mxGeometry relative="1" as="geometry">
            <Array as="points">
              <mxPoint x="20" y="680" />
              <mxPoint x="-100" y="680" />
            </Array>
            <mxPoint x="-100" y="612.8413535886473" as="targetPoint" />
          </mxGeometry>
        </mxCell>
        <mxCell id="eG7ZQN_vo8qLT-gt9y6S-34" style="edgeStyle=orthogonalEdgeStyle;rounded=0;orthogonalLoop=1;jettySize=auto;html=1;entryX=0.5;entryY=1;entryDx=0;entryDy=0;entryPerimeter=0;" edge="1" parent="1" source="XumjTPw2hBYQ-sRrh7FU-18" target="nU_rdTN2ys85tmJCLOdz-18">
          <mxGeometry relative="1" as="geometry">
            <Array as="points">
              <mxPoint x="20" y="680" />
              <mxPoint x="300" y="680" />
            </Array>
            <mxPoint x="300" y="612.8413535886473" as="targetPoint" />
          </mxGeometry>
        </mxCell>
        <mxCell id="eG7ZQN_vo8qLT-gt9y6S-68" style="edgeStyle=orthogonalEdgeStyle;rounded=0;orthogonalLoop=1;jettySize=auto;html=1;entryX=0.5;entryY=1;entryDx=0;entryDy=0;entryPerimeter=0;" edge="1" parent="1" source="XumjTPw2hBYQ-sRrh7FU-18" target="nU_rdTN2ys85tmJCLOdz-16">
          <mxGeometry relative="1" as="geometry">
            <Array as="points">
              <mxPoint x="20" y="680" />
              <mxPoint x="-260" y="680" />
            </Array>
            <mxPoint x="-260" y="612.8413535886473" as="targetPoint" />
          </mxGeometry>
        </mxCell>
        <mxCell id="XumjTPw2hBYQ-sRrh7FU-18" value="Node pool for monitoring components" style="fillColor=none;strokeColor=#5A6C86;dashed=1;verticalAlign=top;fontStyle=0;fontColor=#5A6C86;fontFamily=Helvetica;fontSize=12;" vertex="1" parent="1">
          <mxGeometry x="-320" y="720" width="680" height="120" as="geometry" />
        </mxCell>
        <mxCell id="XumjTPw2hBYQ-sRrh7FU-22" value="Node pool for ScalarDL Ledger" style="fillColor=none;strokeColor=#5A6C86;dashed=1;verticalAlign=top;fontStyle=0;fontColor=#5A6C86;fontFamily=Helvetica;fontSize=12;" vertex="1" parent="1">
          <mxGeometry x="-320" y="520" width="680" height="120" as="geometry" />
        </mxCell>
        <mxCell id="XumjTPw2hBYQ-sRrh7FU-32" value="" style="edgeStyle=orthogonalEdgeStyle;rounded=0;orthogonalLoop=1;jettySize=auto;html=1;fontFamily=Helvetica;fontSize=12;fontColor=#D05C17;entryX=0;entryY=0.5;entryDx=0;entryDy=0;" edge="1" parent="1" source="EX_xdqJNYYm2CHZNdzQD-30" target="XumjTPw2hBYQ-sRrh7FU-18">
          <mxGeometry relative="1" as="geometry">
            <Array as="points">
              <mxPoint x="-480" y="580" />
              <mxPoint x="-480" y="780" />
            </Array>
            <mxPoint x="-520" y="580" as="sourcePoint" />
          </mxGeometry>
        </mxCell>
        <mxCell id="XumjTPw2hBYQ-sRrh7FU-33" value="" style="edgeStyle=orthogonalEdgeStyle;rounded=0;orthogonalLoop=1;jettySize=auto;html=1;fontFamily=Helvetica;fontSize=12;fontColor=#D05C17;entryX=0;entryY=0.5;entryDx=0;entryDy=0;" edge="1" parent="1" source="EX_xdqJNYYm2CHZNdzQD-30" target="XumjTPw2hBYQ-sRrh7FU-22">
          <mxGeometry relative="1" as="geometry">
            <mxPoint x="-520" y="580" as="sourcePoint" />
            <Array as="points" />
          </mxGeometry>
        </mxCell>
        <mxCell id="eG7ZQN_vo8qLT-gt9y6S-24" style="edgeStyle=orthogonalEdgeStyle;rounded=0;orthogonalLoop=1;jettySize=auto;html=1;" edge="1" parent="1" source="nU_rdTN2ys85tmJCLOdz-17" target="nU_rdTN2ys85tmJCLOdz-18">
          <mxGeometry relative="1" as="geometry">
            <mxPoint x="-80" y="600" as="sourcePoint" />
            <mxPoint x="280" y="600.0666666666666" as="targetPoint" />
          </mxGeometry>
        </mxCell>
        <mxCell id="eG7ZQN_vo8qLT-gt9y6S-35" value="Monitoring" style="text;html=1;align=center;verticalAlign=middle;resizable=0;points=[];autosize=1;strokeColor=none;fillColor=none;" vertex="1" parent="1">
          <mxGeometry x="20" y="680" width="80" height="30" as="geometry" />
        </mxCell>
        <mxCell id="eG7ZQN_vo8qLT-gt9y6S-36" value="Bastion server" style="text;html=1;align=center;verticalAlign=middle;resizable=0;points=[];autosize=1;strokeColor=none;fillColor=none;" vertex="1" parent="1">
          <mxGeometry x="-610" y="619.9999999999999" width="100" height="30" as="geometry" />
        </mxCell>
        <mxCell id="eG7ZQN_vo8qLT-gt9y6S-38" value="Deploy &amp;amp; Manage" style="text;html=1;align=center;verticalAlign=middle;resizable=0;points=[];autosize=1;strokeColor=none;fillColor=none;" vertex="1" parent="1">
          <mxGeometry x="-440" y="580" width="120" height="30" as="geometry" />
        </mxCell>
        <mxCell id="eG7ZQN_vo8qLT-gt9y6S-45" style="edgeStyle=orthogonalEdgeStyle;rounded=0;orthogonalLoop=1;jettySize=auto;html=1;entryX=0.5;entryY=1;entryDx=0;entryDy=0;entryPerimeter=0;" edge="1" parent="1" source="EX_xdqJNYYm2CHZNdzQD-24" target="nU_rdTN2ys85tmJCLOdz-26">
          <mxGeometry relative="1" as="geometry">
            <mxPoint x="-360.00000000000045" y="960" as="sourcePoint" />
            <mxPoint x="300" y="812.8413535886473" as="targetPoint" />
          </mxGeometry>
        </mxCell>
        <mxCell id="eG7ZQN_vo8qLT-gt9y6S-50" style="edgeStyle=orthogonalEdgeStyle;rounded=0;orthogonalLoop=1;jettySize=auto;html=1;entryX=0.5;entryY=1;entryDx=0;entryDy=0;entryPerimeter=0;" edge="1" parent="1" source="EX_xdqJNYYm2CHZNdzQD-24" target="nU_rdTN2ys85tmJCLOdz-32">
          <mxGeometry relative="1" as="geometry">
            <mxPoint x="-360.00000000000045" y="960" as="sourcePoint" />
            <mxPoint x="220" y="812.8413535886473" as="targetPoint" />
          </mxGeometry>
        </mxCell>
        <mxCell id="eG7ZQN_vo8qLT-gt9y6S-49" value="Monitoring" style="text;html=1;align=center;verticalAlign=middle;resizable=0;points=[];autosize=1;strokeColor=none;fillColor=none;" vertex="1" parent="1">
          <mxGeometry x="-530" y="960" width="80" height="30" as="geometry" />
        </mxCell>
        <mxCell id="tqQFtVf9cBMd6XpxgD0x-11" style="edgeStyle=orthogonalEdgeStyle;rounded=0;orthogonalLoop=1;jettySize=auto;html=1;" edge="1" parent="1" source="nU_rdTN2ys85tmJCLOdz-9" target="EX_xdqJNYYm2CHZNdzQD-24">
          <mxGeometry relative="1" as="geometry">
            <Array as="points">
              <mxPoint x="-720" y="580" />
              <mxPoint x="-720" y="960" />
            </Array>
            <mxPoint x="-440.00000000000045" y="960" as="targetPoint" />
            <mxPoint x="-763.636363636364" y="580" as="sourcePoint" />
          </mxGeometry>
        </mxCell>
        <mxCell id="eG7ZQN_vo8qLT-gt9y6S-51" value="Administrator&lt;br&gt;for&lt;br&gt;ScalarDL Ledger" style="text;html=1;align=center;verticalAlign=middle;resizable=0;points=[];autosize=1;strokeColor=none;fillColor=none;" vertex="1" parent="1">
          <mxGeometry x="-855" y="620" width="110" height="60" as="geometry" />
        </mxCell>
        <mxCell id="tqQFtVf9cBMd6XpxgD0x-10" style="edgeStyle=orthogonalEdgeStyle;rounded=0;orthogonalLoop=1;jettySize=auto;html=1;" edge="1" parent="1" source="EX_xdqJNYYm2CHZNdzQD-16" target="EX_xdqJNYYm2CHZNdzQD-26">
          <mxGeometry relative="1" as="geometry">
            <Array as="points">
              <mxPoint x="-20" y="160" />
            </Array>
            <mxPoint x="640" y="160.04347826086962" as="sourcePoint" />
            <mxPoint x="-20.000000000000455" y="440" as="targetPoint" />
          </mxGeometry>
        </mxCell>
        <mxCell id="eG7ZQN_vo8qLT-gt9y6S-57" value="Pull Scalar product images" style="text;html=1;align=center;verticalAlign=middle;resizable=0;points=[];autosize=1;strokeColor=none;fillColor=none;" vertex="1" parent="1">
          <mxGeometry x="470" y="160" width="170" height="30" as="geometry" />
        </mxCell>
        <mxCell id="eG7ZQN_vo8qLT-gt9y6S-59" value="Create AKS cluster" style="text;html=1;align=center;verticalAlign=middle;resizable=0;points=[];autosize=1;strokeColor=none;fillColor=none;" vertex="1" parent="1">
          <mxGeometry x="-575" y="480" width="120" height="30" as="geometry" />
        </mxCell>
        <mxCell id="eG7ZQN_vo8qLT-gt9y6S-73" value="Client requests via Scalar Envoy" style="text;html=1;align=center;verticalAlign=middle;resizable=0;points=[];autosize=1;strokeColor=none;fillColor=none;" vertex="1" parent="1">
          <mxGeometry x="-10" y="570" width="200" height="30" as="geometry" />
        </mxCell>
        <mxCell id="eG7ZQN_vo8qLT-gt9y6S-74" value="Read/Write&lt;br&gt;requests" style="text;html=1;align=center;verticalAlign=middle;resizable=0;points=[];autosize=1;strokeColor=none;fillColor=none;" vertex="1" parent="1">
          <mxGeometry x="460" y="559.9999999999999" width="80" height="40" as="geometry" />
        </mxCell>
        <mxCell id="tqQFtVf9cBMd6XpxgD0x-13" value="Deploy &amp;amp; Manage" style="text;html=1;align=center;verticalAlign=middle;resizable=0;points=[];autosize=1;strokeColor=none;fillColor=none;" vertex="1" parent="1">
          <mxGeometry x="-440" y="780" width="120" height="30" as="geometry" />
        </mxCell>
        <mxCell id="tqQFtVf9cBMd6XpxgD0x-21" value="Monitoring" style="text;html=1;align=center;verticalAlign=middle;resizable=0;points=[];autosize=1;strokeColor=none;fillColor=none;" vertex="1" parent="1">
          <mxGeometry x="220" y="960" width="80" height="30" as="geometry" />
        </mxCell>
        <mxCell id="UtOP1kqGwqF7ZHsXyCKP-9" style="edgeStyle=orthogonalEdgeStyle;rounded=0;orthogonalLoop=1;jettySize=auto;html=1;entryX=0.5;entryY=0;entryDx=0;entryDy=0;entryPerimeter=0;" edge="1" parent="1" source="EX_xdqJNYYm2CHZNdzQD-21" target="nU_rdTN2ys85tmJCLOdz-17">
          <mxGeometry relative="1" as="geometry">
            <mxPoint x="-100" y="400" as="sourcePoint" />
            <mxPoint x="-100" y="587.1586464113527" as="targetPoint" />
          </mxGeometry>
        </mxCell>
        <mxCell id="kts-2amzLd4KtE07fWtA-69" value="Managed databases" style="fillColor=none;strokeColor=#5A6C86;dashed=1;verticalAlign=top;fontStyle=0;fontColor=#5A6C86;fontFamily=Helvetica;fontSize=12;" vertex="1" parent="1">
          <mxGeometry x="600" y="1400" width="160" height="560" as="geometry" />
        </mxCell>
        <mxCell id="kts-2amzLd4KtE07fWtA-73" style="edgeStyle=orthogonalEdgeStyle;rounded=0;orthogonalLoop=1;jettySize=auto;html=1;" edge="1" parent="1" source="nU_rdTN2ys85tmJCLOdz-33" target="EX_xdqJNYYm2CHZNdzQD-12">
          <mxGeometry relative="1" as="geometry">
            <Array as="points">
              <mxPoint x="560" y="1680" />
              <mxPoint x="560" y="1520" />
            </Array>
            <mxPoint x="640" y="1520" as="targetPoint" />
            <mxPoint x="320" y="1680.0555555555557" as="sourcePoint" />
          </mxGeometry>
        </mxCell>
        <mxCell id="kts-2amzLd4KtE07fWtA-74" style="edgeStyle=orthogonalEdgeStyle;rounded=0;orthogonalLoop=1;jettySize=auto;html=1;" edge="1" parent="1" source="nU_rdTN2ys85tmJCLOdz-33" target="EX_xdqJNYYm2CHZNdzQD-14">
          <mxGeometry relative="1" as="geometry">
            <Array as="points">
              <mxPoint x="560" y="1680" />
              <mxPoint x="560" y="1840" />
            </Array>
            <mxPoint x="640" y="1840.04347826087" as="targetPoint" />
            <mxPoint x="320" y="1680.0555555555557" as="sourcePoint" />
          </mxGeometry>
        </mxCell>
        <mxCell id="kts-2amzLd4KtE07fWtA-75" style="edgeStyle=orthogonalEdgeStyle;rounded=0;orthogonalLoop=1;jettySize=auto;html=1;" edge="1" parent="1" source="nU_rdTN2ys85tmJCLOdz-33" target="EX_xdqJNYYm2CHZNdzQD-13">
          <mxGeometry relative="1" as="geometry">
            <Array as="points" />
            <mxPoint x="640" y="1680.04347826087" as="targetPoint" />
            <mxPoint x="320" y="1680.0555555555557" as="sourcePoint" />
          </mxGeometry>
        </mxCell>
        <mxCell id="kts-2amzLd4KtE07fWtA-77" style="edgeStyle=orthogonalEdgeStyle;rounded=0;orthogonalLoop=1;jettySize=auto;html=1;entryX=0.5;entryY=1;entryDx=0;entryDy=0;entryPerimeter=0;" edge="1" parent="1" source="kts-2amzLd4KtE07fWtA-80" target="nU_rdTN2ys85tmJCLOdz-34">
          <mxGeometry relative="1" as="geometry">
            <Array as="points">
              <mxPoint x="20" y="1760" />
              <mxPoint x="-100" y="1760" />
            </Array>
            <mxPoint x="-100" y="1692.841353588647" as="targetPoint" />
          </mxGeometry>
        </mxCell>
        <mxCell id="kts-2amzLd4KtE07fWtA-78" style="edgeStyle=orthogonalEdgeStyle;rounded=0;orthogonalLoop=1;jettySize=auto;html=1;entryX=0.5;entryY=1;entryDx=0;entryDy=0;entryPerimeter=0;" edge="1" parent="1" source="kts-2amzLd4KtE07fWtA-80" target="nU_rdTN2ys85tmJCLOdz-33">
          <mxGeometry relative="1" as="geometry">
            <Array as="points">
              <mxPoint x="20" y="1760" />
              <mxPoint x="300" y="1760" />
            </Array>
            <mxPoint x="300" y="1692.841353588647" as="targetPoint" />
          </mxGeometry>
        </mxCell>
        <mxCell id="kts-2amzLd4KtE07fWtA-79" style="edgeStyle=orthogonalEdgeStyle;rounded=0;orthogonalLoop=1;jettySize=auto;html=1;entryX=0.5;entryY=1;entryDx=0;entryDy=0;entryPerimeter=0;" edge="1" parent="1" source="kts-2amzLd4KtE07fWtA-80" target="nU_rdTN2ys85tmJCLOdz-35">
          <mxGeometry relative="1" as="geometry">
            <Array as="points">
              <mxPoint x="20" y="1760" />
              <mxPoint x="-260" y="1760" />
            </Array>
            <mxPoint x="-260" y="1692.841353588647" as="targetPoint" />
          </mxGeometry>
        </mxCell>
        <mxCell id="kts-2amzLd4KtE07fWtA-80" value="Node pool for monitoring components" style="fillColor=none;strokeColor=#5A6C86;dashed=1;verticalAlign=top;fontStyle=0;fontColor=#5A6C86;fontFamily=Helvetica;fontSize=12;" vertex="1" parent="1">
          <mxGeometry x="-320" y="1800" width="680" height="120" as="geometry" />
        </mxCell>
        <mxCell id="kts-2amzLd4KtE07fWtA-81" value="Node pool for ScalarDL Auditor" style="fillColor=none;strokeColor=#5A6C86;dashed=1;verticalAlign=top;fontStyle=0;fontColor=#5A6C86;fontFamily=Helvetica;fontSize=12;" vertex="1" parent="1">
          <mxGeometry x="-320" y="1600" width="680" height="120" as="geometry" />
        </mxCell>
        <mxCell id="kts-2amzLd4KtE07fWtA-82" value="" style="edgeStyle=orthogonalEdgeStyle;rounded=0;orthogonalLoop=1;jettySize=auto;html=1;fontFamily=Helvetica;fontSize=12;fontColor=#D05C17;entryX=0;entryY=0.5;entryDx=0;entryDy=0;" edge="1" parent="1" source="EX_xdqJNYYm2CHZNdzQD-31" target="kts-2amzLd4KtE07fWtA-80">
          <mxGeometry relative="1" as="geometry">
            <Array as="points">
              <mxPoint x="-480" y="1660" />
              <mxPoint x="-480" y="1860" />
            </Array>
            <mxPoint x="-520" y="1660" as="sourcePoint" />
          </mxGeometry>
        </mxCell>
        <mxCell id="kts-2amzLd4KtE07fWtA-83" value="" style="edgeStyle=orthogonalEdgeStyle;rounded=0;orthogonalLoop=1;jettySize=auto;html=1;fontFamily=Helvetica;fontSize=12;fontColor=#D05C17;entryX=0;entryY=0.5;entryDx=0;entryDy=0;" edge="1" parent="1" source="EX_xdqJNYYm2CHZNdzQD-31" target="kts-2amzLd4KtE07fWtA-81">
          <mxGeometry relative="1" as="geometry">
            <mxPoint x="-520" y="1660" as="sourcePoint" />
            <Array as="points" />
          </mxGeometry>
        </mxCell>
        <mxCell id="kts-2amzLd4KtE07fWtA-85" value="ScalarDL Auditor" style="text;html=1;align=center;verticalAlign=middle;resizable=0;points=[];autosize=1;strokeColor=none;fillColor=none;" vertex="1" parent="1">
          <mxGeometry x="245" y="1630" width="110" height="30" as="geometry" />
        </mxCell>
        <mxCell id="kts-2amzLd4KtE07fWtA-86" value="Scalar Envoy" style="text;html=1;align=center;verticalAlign=middle;resizable=0;points=[];autosize=1;strokeColor=none;fillColor=none;" vertex="1" parent="1">
          <mxGeometry x="-190" y="1630" width="90" height="30" as="geometry" />
        </mxCell>
        <mxCell id="kts-2amzLd4KtE07fWtA-87" value="Prometheus&lt;br&gt;Operator" style="text;html=1;align=center;verticalAlign=middle;resizable=0;points=[];autosize=1;strokeColor=none;fillColor=none;" vertex="1" parent="1">
          <mxGeometry x="-225" y="1820" width="90" height="40" as="geometry" />
        </mxCell>
        <mxCell id="kts-2amzLd4KtE07fWtA-94" style="edgeStyle=orthogonalEdgeStyle;rounded=0;orthogonalLoop=1;jettySize=auto;html=1;" edge="1" parent="1" target="nU_rdTN2ys85tmJCLOdz-33">
          <mxGeometry relative="1" as="geometry">
            <mxPoint x="-80" y="1680.0555555555557" as="sourcePoint" />
            <mxPoint x="280" y="1680" as="targetPoint" />
          </mxGeometry>
        </mxCell>
        <mxCell id="kts-2amzLd4KtE07fWtA-100" value="Monitoring" style="text;html=1;align=center;verticalAlign=middle;resizable=0;points=[];autosize=1;strokeColor=none;fillColor=none;" vertex="1" parent="1">
          <mxGeometry x="20" y="1760" width="80" height="30" as="geometry" />
        </mxCell>
        <mxCell id="kts-2amzLd4KtE07fWtA-101" value="Bastion server" style="text;html=1;align=center;verticalAlign=middle;resizable=0;points=[];autosize=1;strokeColor=none;fillColor=none;" vertex="1" parent="1">
          <mxGeometry x="-610" y="1700" width="100" height="30" as="geometry" />
        </mxCell>
        <mxCell id="kts-2amzLd4KtE07fWtA-102" value="Deploy &amp;amp; Manage" style="text;html=1;align=center;verticalAlign=middle;resizable=0;points=[];autosize=1;strokeColor=none;fillColor=none;" vertex="1" parent="1">
          <mxGeometry x="-440" y="1660" width="120" height="30" as="geometry" />
        </mxCell>
        <mxCell id="kts-2amzLd4KtE07fWtA-103" style="edgeStyle=orthogonalEdgeStyle;rounded=0;orthogonalLoop=1;jettySize=auto;html=1;entryX=0.5;entryY=1;entryDx=0;entryDy=0;entryPerimeter=0;" edge="1" parent="1" source="EX_xdqJNYYm2CHZNdzQD-25" target="nU_rdTN2ys85tmJCLOdz-42">
          <mxGeometry relative="1" as="geometry">
            <mxPoint x="-360.00000000000045" y="2039.9999999999995" as="sourcePoint" />
            <mxPoint x="300" y="1892.841353588647" as="targetPoint" />
          </mxGeometry>
        </mxCell>
        <mxCell id="kts-2amzLd4KtE07fWtA-104" style="edgeStyle=orthogonalEdgeStyle;rounded=0;orthogonalLoop=1;jettySize=auto;html=1;entryX=0.5;entryY=1;entryDx=0;entryDy=0;entryPerimeter=0;" edge="1" parent="1" source="EX_xdqJNYYm2CHZNdzQD-25" target="nU_rdTN2ys85tmJCLOdz-41">
          <mxGeometry relative="1" as="geometry">
            <mxPoint x="-360.00000000000045" y="2039.9999999999995" as="sourcePoint" />
            <mxPoint x="220" y="1892.841353588647" as="targetPoint" />
          </mxGeometry>
        </mxCell>
        <mxCell id="kts-2amzLd4KtE07fWtA-106" value="Monitoring" style="text;html=1;align=center;verticalAlign=middle;resizable=0;points=[];autosize=1;strokeColor=none;fillColor=none;" vertex="1" parent="1">
          <mxGeometry x="-530" y="2040" width="80" height="30" as="geometry" />
        </mxCell>
        <mxCell id="kts-2amzLd4KtE07fWtA-107" style="edgeStyle=orthogonalEdgeStyle;rounded=0;orthogonalLoop=1;jettySize=auto;html=1;" edge="1" parent="1" source="EX_xdqJNYYm2CHZNdzQD-18" target="EX_xdqJNYYm2CHZNdzQD-29">
          <mxGeometry relative="1" as="geometry">
            <Array as="points">
              <mxPoint x="-20" y="1240" />
            </Array>
            <mxPoint x="640" y="1240.0434782608697" as="sourcePoint" />
            <mxPoint x="-20.000000000000455" y="1520" as="targetPoint" />
          </mxGeometry>
        </mxCell>
        <mxCell id="kts-2amzLd4KtE07fWtA-110" value="Pull Scalar product images" style="text;html=1;align=center;verticalAlign=middle;resizable=0;points=[];autosize=1;strokeColor=none;fillColor=none;" vertex="1" parent="1">
          <mxGeometry x="470" y="1240" width="170" height="30" as="geometry" />
        </mxCell>
        <mxCell id="kts-2amzLd4KtE07fWtA-111" value="Create AKS cluster" style="text;html=1;align=center;verticalAlign=middle;resizable=0;points=[];autosize=1;strokeColor=none;fillColor=none;" vertex="1" parent="1">
          <mxGeometry x="-575" y="1560" width="120" height="30" as="geometry" />
        </mxCell>
        <mxCell id="kts-2amzLd4KtE07fWtA-117" value="Promtail&lt;br&gt;(for monitoring)" style="text;html=1;align=center;verticalAlign=middle;resizable=0;points=[];autosize=1;strokeColor=none;fillColor=none;" vertex="1" parent="1">
          <mxGeometry x="-310" y="1620" width="100" height="40" as="geometry" />
        </mxCell>
        <mxCell id="kts-2amzLd4KtE07fWtA-121" value="Client requests via Scalar Envoy" style="text;html=1;align=center;verticalAlign=middle;resizable=0;points=[];autosize=1;strokeColor=none;fillColor=none;" vertex="1" parent="1">
          <mxGeometry x="-10" y="1650" width="200" height="30" as="geometry" />
        </mxCell>
        <mxCell id="kts-2amzLd4KtE07fWtA-122" value="Read/Write&lt;br&gt;requests" style="text;html=1;align=center;verticalAlign=middle;resizable=0;points=[];autosize=1;strokeColor=none;fillColor=none;" vertex="1" parent="1">
          <mxGeometry x="460" y="1640" width="80" height="40" as="geometry" />
        </mxCell>
        <mxCell id="kts-2amzLd4KtE07fWtA-123" value="Deploy &amp;amp; Manage" style="text;html=1;align=center;verticalAlign=middle;resizable=0;points=[];autosize=1;strokeColor=none;fillColor=none;" vertex="1" parent="1">
          <mxGeometry x="-440" y="1860" width="120" height="30" as="geometry" />
        </mxCell>
        <mxCell id="kts-2amzLd4KtE07fWtA-124" value="Monitoring" style="text;html=1;align=center;verticalAlign=middle;resizable=0;points=[];autosize=1;strokeColor=none;fillColor=none;" vertex="1" parent="1">
          <mxGeometry x="220" y="2040" width="80" height="30" as="geometry" />
        </mxCell>
        <mxCell id="UtOP1kqGwqF7ZHsXyCKP-10" style="edgeStyle=orthogonalEdgeStyle;rounded=0;orthogonalLoop=1;jettySize=auto;html=1;" edge="1" parent="1" source="EX_xdqJNYYm2CHZNdzQD-23" target="nU_rdTN2ys85tmJCLOdz-34">
          <mxGeometry relative="1" as="geometry">
            <mxPoint x="-99.99999999999955" y="1480" as="sourcePoint" />
            <mxPoint x="-100" y="1667.1586464113525" as="targetPoint" />
          </mxGeometry>
        </mxCell>
        <mxCell id="kts-2amzLd4KtE07fWtA-129" style="edgeStyle=orthogonalEdgeStyle;rounded=0;orthogonalLoop=1;jettySize=auto;html=1;" edge="1" parent="1" source="nU_rdTN2ys85tmJCLOdz-6" target="EX_xdqJNYYm2CHZNdzQD-28">
          <mxGeometry relative="1" as="geometry">
            <Array as="points">
              <mxPoint x="-720" y="1660" />
              <mxPoint x="-720" y="1560" />
            </Array>
            <mxPoint x="-440.00000000000045" y="1560" as="targetPoint" />
            <mxPoint x="-763.636363636364" y="1659.9999999999995" as="sourcePoint" />
          </mxGeometry>
        </mxCell>
        <mxCell id="kts-2amzLd4KtE07fWtA-130" style="edgeStyle=orthogonalEdgeStyle;rounded=0;orthogonalLoop=1;jettySize=auto;html=1;" edge="1" parent="1" source="nU_rdTN2ys85tmJCLOdz-6" target="EX_xdqJNYYm2CHZNdzQD-31">
          <mxGeometry relative="1" as="geometry">
            <mxPoint x="-600" y="1660" as="targetPoint" />
            <mxPoint x="-763.636363636364" y="1659.9999999999995" as="sourcePoint" />
          </mxGeometry>
        </mxCell>
        <mxCell id="kts-2amzLd4KtE07fWtA-131" style="edgeStyle=orthogonalEdgeStyle;rounded=0;orthogonalLoop=1;jettySize=auto;html=1;" edge="1" parent="1" source="nU_rdTN2ys85tmJCLOdz-6" target="EX_xdqJNYYm2CHZNdzQD-25">
          <mxGeometry relative="1" as="geometry">
            <Array as="points">
              <mxPoint x="-720" y="1660" />
              <mxPoint x="-720" y="2040" />
            </Array>
            <mxPoint x="-440.00000000000045" y="2039.9999999999995" as="targetPoint" />
            <mxPoint x="-763.636363636364" y="1659.9999999999995" as="sourcePoint" />
          </mxGeometry>
        </mxCell>
        <mxCell id="kts-2amzLd4KtE07fWtA-127" value="Administrator&lt;br&gt;for&lt;br&gt;ScalarDL Auditor" style="text;html=1;align=center;verticalAlign=middle;resizable=0;points=[];autosize=1;strokeColor=none;fillColor=none;" vertex="1" parent="1">
          <mxGeometry x="-855" y="1700" width="110" height="60" as="geometry" />
        </mxCell>
        <mxCell id="kts-2amzLd4KtE07fWtA-144" style="edgeStyle=orthogonalEdgeStyle;rounded=0;orthogonalLoop=1;jettySize=auto;html=1;entryX=0;entryY=0.5;entryDx=0;entryDy=0;" edge="1" parent="1" source="nU_rdTN2ys85tmJCLOdz-5">
          <mxGeometry relative="1" as="geometry">
            <mxPoint x="-1403.6363636363633" y="1120" as="sourcePoint" />
            <mxPoint x="-1240" y="1120" as="targetPoint" />
          </mxGeometry>
        </mxCell>
        <mxCell id="kts-2amzLd4KtE07fWtA-133" value="Administrator&lt;br&gt;for&lt;br&gt;User application" style="text;html=1;align=center;verticalAlign=middle;resizable=0;points=[];autosize=1;strokeColor=none;fillColor=none;" vertex="1" parent="1">
          <mxGeometry x="-1495" y="1160" width="110" height="60" as="geometry" />
        </mxCell>
        <mxCell id="kts-2amzLd4KtE07fWtA-140" value="User app" style="text;html=1;align=center;verticalAlign=middle;resizable=0;points=[];autosize=1;strokeColor=none;fillColor=none;" vertex="1" parent="1">
          <mxGeometry x="-1175" y="1040" width="70" height="30" as="geometry" />
        </mxCell>
        <mxCell id="kts-2amzLd4KtE07fWtA-141" value="User app" style="text;html=1;align=center;verticalAlign=middle;resizable=0;points=[];autosize=1;strokeColor=none;fillColor=none;" vertex="1" parent="1">
          <mxGeometry x="-1175" y="1139" width="70" height="30" as="geometry" />
        </mxCell>
        <mxCell id="kts-2amzLd4KtE07fWtA-143" value="User app" style="text;html=1;align=center;verticalAlign=middle;resizable=0;points=[];autosize=1;strokeColor=none;fillColor=none;" vertex="1" parent="1">
          <mxGeometry x="-1175" y="1240.0000000000002" width="70" height="30" as="geometry" />
        </mxCell>
        <mxCell id="kts-2amzLd4KtE07fWtA-145" value="Deploy &amp;amp; Manage" style="text;html=1;align=center;verticalAlign=middle;resizable=0;points=[];autosize=1;strokeColor=none;fillColor=none;" vertex="1" parent="1">
          <mxGeometry x="-1400" y="1120" width="120" height="30" as="geometry" />
        </mxCell>
        <mxCell id="UtOP1kqGwqF7ZHsXyCKP-11" value="Client requests for ScalarDL Ledger" style="text;html=1;align=center;verticalAlign=middle;resizable=0;points=[];autosize=1;strokeColor=none;fillColor=none;" vertex="1" parent="1">
          <mxGeometry x="-920" y="360" width="210" height="30" as="geometry" />
        </mxCell>
        <mxCell id="UtOP1kqGwqF7ZHsXyCKP-12" value="Client requests for ScalarDL Auditor" style="text;html=1;align=center;verticalAlign=middle;resizable=0;points=[];autosize=1;strokeColor=none;fillColor=none;" vertex="1" parent="1">
          <mxGeometry x="-920" y="1410" width="210" height="30" as="geometry" />
        </mxCell>
        <mxCell id="EX_xdqJNYYm2CHZNdzQD-1" value="Cosmos DB&lt;br&gt;for NoSQL" style="text;html=1;align=center;verticalAlign=middle;resizable=0;points=[];autosize=1;strokeColor=none;fillColor=none;" vertex="1" parent="1">
          <mxGeometry x="635" y="475" width="90" height="40" as="geometry" />
        </mxCell>
        <mxCell id="EX_xdqJNYYm2CHZNdzQD-2" value="Azure Database&lt;br&gt;for MySQL" style="text;html=1;align=center;verticalAlign=middle;resizable=0;points=[];autosize=1;strokeColor=none;fillColor=none;" vertex="1" parent="1">
          <mxGeometry x="625" y="635" width="110" height="40" as="geometry" />
        </mxCell>
        <mxCell id="EX_xdqJNYYm2CHZNdzQD-3" value="Azure Database&lt;br&gt;for PostgreSQL" style="text;html=1;align=center;verticalAlign=middle;resizable=0;points=[];autosize=1;strokeColor=none;fillColor=none;" vertex="1" parent="1">
          <mxGeometry x="625" y="795" width="110" height="40" as="geometry" />
        </mxCell>
        <mxCell id="EX_xdqJNYYm2CHZNdzQD-4" value="" style="image;aspect=fixed;html=1;points=[];align=center;fontSize=12;image=img/lib/azure2/databases/Azure_Cosmos_DB.svg;" vertex="1" parent="1">
          <mxGeometry x="640" y="400" width="80" height="80" as="geometry" />
        </mxCell>
        <mxCell id="EX_xdqJNYYm2CHZNdzQD-5" value="" style="image;aspect=fixed;html=1;points=[];align=center;fontSize=12;image=img/lib/azure2/databases/Azure_Database_MySQL_Server.svg;" vertex="1" parent="1">
          <mxGeometry x="650" y="560.0000000000001" width="60" height="80" as="geometry" />
        </mxCell>
        <mxCell id="EX_xdqJNYYm2CHZNdzQD-6" value="" style="image;aspect=fixed;html=1;points=[];align=center;fontSize=12;image=img/lib/azure2/databases/Azure_Database_PostgreSQL_Server.svg;" vertex="1" parent="1">
          <mxGeometry x="650" y="720" width="60" height="80" as="geometry" />
        </mxCell>
        <mxCell id="EX_xdqJNYYm2CHZNdzQD-9" value="Cosmos DB&lt;br&gt;for NoSQL" style="text;html=1;align=center;verticalAlign=middle;resizable=0;points=[];autosize=1;strokeColor=none;fillColor=none;" vertex="1" parent="1">
          <mxGeometry x="635" y="1555" width="90" height="40" as="geometry" />
        </mxCell>
        <mxCell id="EX_xdqJNYYm2CHZNdzQD-10" value="Azure Database&lt;br&gt;for MySQL" style="text;html=1;align=center;verticalAlign=middle;resizable=0;points=[];autosize=1;strokeColor=none;fillColor=none;" vertex="1" parent="1">
          <mxGeometry x="625" y="1715" width="110" height="40" as="geometry" />
        </mxCell>
        <mxCell id="EX_xdqJNYYm2CHZNdzQD-11" value="Azure Database&lt;br&gt;for PostgreSQL" style="text;html=1;align=center;verticalAlign=middle;resizable=0;points=[];autosize=1;strokeColor=none;fillColor=none;" vertex="1" parent="1">
          <mxGeometry x="625" y="1875" width="110" height="40" as="geometry" />
        </mxCell>
        <mxCell id="EX_xdqJNYYm2CHZNdzQD-12" value="" style="image;aspect=fixed;html=1;points=[];align=center;fontSize=12;image=img/lib/azure2/databases/Azure_Cosmos_DB.svg;" vertex="1" parent="1">
          <mxGeometry x="640" y="1480" width="80" height="80" as="geometry" />
        </mxCell>
        <mxCell id="EX_xdqJNYYm2CHZNdzQD-13" value="" style="image;aspect=fixed;html=1;points=[];align=center;fontSize=12;image=img/lib/azure2/databases/Azure_Database_MySQL_Server.svg;" vertex="1" parent="1">
          <mxGeometry x="650" y="1640" width="60" height="80" as="geometry" />
        </mxCell>
        <mxCell id="EX_xdqJNYYm2CHZNdzQD-14" value="" style="image;aspect=fixed;html=1;points=[];align=center;fontSize=12;image=img/lib/azure2/databases/Azure_Database_PostgreSQL_Server.svg;" vertex="1" parent="1">
          <mxGeometry x="650" y="1800" width="60" height="80" as="geometry" />
        </mxCell>
        <mxCell id="EX_xdqJNYYm2CHZNdzQD-15" value="Azure Marketplace&lt;br&gt;Container Registry" style="text;html=1;align=center;verticalAlign=middle;resizable=0;points=[];autosize=1;strokeColor=none;fillColor=none;" vertex="1" parent="1">
          <mxGeometry x="620" y="200" width="120" height="40" as="geometry" />
        </mxCell>
        <mxCell id="EX_xdqJNYYm2CHZNdzQD-16" value="" style="image;aspect=fixed;html=1;points=[];align=center;fontSize=12;image=img/lib/azure2/containers/Container_Registries.svg;" vertex="1" parent="1">
          <mxGeometry x="635" y="120" width="89.17" height="80" as="geometry" />
        </mxCell>
        <mxCell id="EX_xdqJNYYm2CHZNdzQD-17" value="Azure Marketplace&lt;br&gt;Container Registry" style="text;html=1;align=center;verticalAlign=middle;resizable=0;points=[];autosize=1;strokeColor=none;fillColor=none;" vertex="1" parent="1">
          <mxGeometry x="619.59" y="1280" width="120" height="40" as="geometry" />
        </mxCell>
        <mxCell id="EX_xdqJNYYm2CHZNdzQD-18" value="" style="image;aspect=fixed;html=1;points=[];align=center;fontSize=12;image=img/lib/azure2/containers/Container_Registries.svg;" vertex="1" parent="1">
          <mxGeometry x="634.59" y="1200" width="89.17" height="80" as="geometry" />
        </mxCell>
        <mxCell id="EX_xdqJNYYm2CHZNdzQD-21" value="" style="image;aspect=fixed;html=1;points=[];align=center;fontSize=12;image=img/lib/azure2/networking/Load_Balancers.svg;" vertex="1" parent="1">
          <mxGeometry x="-140" y="320" width="80" height="80" as="geometry" />
        </mxCell>
        <mxCell id="EX_xdqJNYYm2CHZNdzQD-23" value="" style="image;aspect=fixed;html=1;points=[];align=center;fontSize=12;image=img/lib/azure2/networking/Load_Balancers.svg;" vertex="1" parent="1">
          <mxGeometry x="-140" y="1400" width="80" height="80" as="geometry" />
        </mxCell>
        <mxCell id="EX_xdqJNYYm2CHZNdzQD-24" value="" style="image;aspect=fixed;html=1;points=[];align=center;fontSize=12;image=img/lib/azure2/networking/Load_Balancers.svg;" vertex="1" parent="1">
          <mxGeometry x="-440" y="920" width="80" height="80" as="geometry" />
        </mxCell>
        <mxCell id="EX_xdqJNYYm2CHZNdzQD-25" value="" style="image;aspect=fixed;html=1;points=[];align=center;fontSize=12;image=img/lib/azure2/networking/Load_Balancers.svg;" vertex="1" parent="1">
          <mxGeometry x="-440" y="2000" width="80" height="80" as="geometry" />
        </mxCell>
        <mxCell id="EX_xdqJNYYm2CHZNdzQD-27" value="" style="image;aspect=fixed;html=1;points=[];align=center;fontSize=12;image=img/lib/azure2/containers/Kubernetes_Services.svg;" vertex="1" parent="1">
          <mxGeometry x="-440" y="440" width="90.66" height="80" as="geometry" />
        </mxCell>
        <mxCell id="EX_xdqJNYYm2CHZNdzQD-28" value="" style="image;aspect=fixed;html=1;points=[];align=center;fontSize=12;image=img/lib/azure2/containers/Kubernetes_Services.svg;" vertex="1" parent="1">
          <mxGeometry x="-440" y="1520" width="90.66" height="80" as="geometry" />
        </mxCell>
        <mxCell id="EX_xdqJNYYm2CHZNdzQD-30" value="" style="image;aspect=fixed;html=1;points=[];align=center;fontSize=12;image=img/lib/azure2/compute/Virtual_Machine.svg;" vertex="1" parent="1">
          <mxGeometry x="-603.12" y="540" width="86.25" height="80" as="geometry" />
        </mxCell>
        <mxCell id="EX_xdqJNYYm2CHZNdzQD-31" value="" style="image;aspect=fixed;html=1;points=[];align=center;fontSize=12;image=img/lib/azure2/compute/Virtual_Machine.svg;" vertex="1" parent="1">
          <mxGeometry x="-603.12" y="1620" width="86.25" height="80" as="geometry" />
        </mxCell>
        <mxCell id="EX_xdqJNYYm2CHZNdzQD-33" value="" style="image;aspect=fixed;html=1;points=[];align=center;fontSize=12;image=img/lib/azure2/networking/Virtual_Networks.svg;" vertex="1" parent="1">
          <mxGeometry x="-640" y="280" width="67" height="40" as="geometry" />
        </mxCell>
        <mxCell id="EX_xdqJNYYm2CHZNdzQD-34" value="VNet" style="text;html=1;align=center;verticalAlign=middle;resizable=0;points=[];autosize=1;strokeColor=none;fillColor=none;" vertex="1" parent="1">
          <mxGeometry x="-573" y="280" width="50" height="30" as="geometry" />
        </mxCell>
        <mxCell id="EX_xdqJNYYm2CHZNdzQD-38" value="" style="image;aspect=fixed;html=1;points=[];align=center;fontSize=12;image=img/lib/azure2/networking/Virtual_Networks.svg;" vertex="1" parent="1">
          <mxGeometry x="-640" y="1360" width="67" height="40" as="geometry" />
        </mxCell>
        <mxCell id="EX_xdqJNYYm2CHZNdzQD-39" value="VNet" style="text;html=1;align=center;verticalAlign=middle;resizable=0;points=[];autosize=1;strokeColor=none;fillColor=none;" vertex="1" parent="1">
          <mxGeometry x="-573" y="1360" width="50" height="30" as="geometry" />
        </mxCell>
        <mxCell id="nU_rdTN2ys85tmJCLOdz-3" value="" style="image;aspect=fixed;html=1;points=[];align=center;fontSize=12;image=img/lib/azure2/networking/Virtual_Networks.svg;" vertex="1" parent="1">
          <mxGeometry x="-1240" y="920" width="67" height="40" as="geometry" />
        </mxCell>
        <mxCell id="nU_rdTN2ys85tmJCLOdz-4" value="VNet" style="text;html=1;align=center;verticalAlign=middle;resizable=0;points=[];autosize=1;strokeColor=none;fillColor=none;" vertex="1" parent="1">
          <mxGeometry x="-1173" y="920" width="50" height="30" as="geometry" />
        </mxCell>
        <mxCell id="nU_rdTN2ys85tmJCLOdz-5" value="" style="image;aspect=fixed;html=1;points=[];align=center;fontSize=12;image=img/lib/azure2/identity/Users.svg;" vertex="1" parent="1">
          <mxGeometry x="-1476.57" y="1080" width="73.14" height="80" as="geometry" />
        </mxCell>
        <mxCell id="nU_rdTN2ys85tmJCLOdz-6" value="" style="image;aspect=fixed;html=1;points=[];align=center;fontSize=12;image=img/lib/azure2/identity/Users.svg;" vertex="1" parent="1">
          <mxGeometry x="-836.5699999999999" y="1620" width="73.14" height="80" as="geometry" />
        </mxCell>
        <mxCell id="nU_rdTN2ys85tmJCLOdz-9" value="" style="image;aspect=fixed;html=1;points=[];align=center;fontSize=12;image=img/lib/azure2/identity/Users.svg;" vertex="1" parent="1">
          <mxGeometry x="-836.5699999999999" y="540" width="73.14" height="80" as="geometry" />
        </mxCell>
        <mxCell id="nU_rdTN2ys85tmJCLOdz-10" value="" style="sketch=0;html=1;dashed=0;whitespace=wrap;fillColor=#2875E2;strokeColor=#ffffff;points=[[0.005,0.63,0],[0.1,0.2,0],[0.9,0.2,0],[0.5,0,0],[0.995,0.63,0],[0.72,0.99,0],[0.5,1,0],[0.28,0.99,0]];verticalLabelPosition=bottom;align=center;verticalAlign=top;shape=mxgraph.kubernetes.icon;prIcon=pod" vertex="1" parent="1">
          <mxGeometry x="-1160" y="1100" width="40" height="40" as="geometry" />
        </mxCell>
        <mxCell id="nU_rdTN2ys85tmJCLOdz-11" value="" style="sketch=0;html=1;dashed=0;whitespace=wrap;fillColor=#2875E2;strokeColor=#ffffff;points=[[0.005,0.63,0],[0.1,0.2,0],[0.9,0.2,0],[0.5,0,0],[0.995,0.63,0],[0.72,0.99,0],[0.5,1,0],[0.28,0.99,0]];verticalLabelPosition=bottom;align=center;verticalAlign=top;shape=mxgraph.kubernetes.icon;prIcon=pod" vertex="1" parent="1">
          <mxGeometry x="-1160" y="1000" width="40" height="40" as="geometry" />
        </mxCell>
        <mxCell id="nU_rdTN2ys85tmJCLOdz-12" value="" style="sketch=0;html=1;dashed=0;whitespace=wrap;fillColor=#2875E2;strokeColor=#ffffff;points=[[0.005,0.63,0],[0.1,0.2,0],[0.9,0.2,0],[0.5,0,0],[0.995,0.63,0],[0.72,0.99,0],[0.5,1,0],[0.28,0.99,0]];verticalLabelPosition=bottom;align=center;verticalAlign=top;shape=mxgraph.kubernetes.icon;prIcon=pod" vertex="1" parent="1">
          <mxGeometry x="-1160" y="1200" width="40" height="40" as="geometry" />
        </mxCell>
        <mxCell id="nU_rdTN2ys85tmJCLOdz-13" value="ScalarDL Ledger" style="text;html=1;align=center;verticalAlign=middle;resizable=0;points=[];autosize=1;strokeColor=none;fillColor=none;" vertex="1" parent="1">
          <mxGeometry x="245" y="550" width="110" height="30" as="geometry" />
        </mxCell>
        <mxCell id="nU_rdTN2ys85tmJCLOdz-14" value="Scalar Envoy" style="text;html=1;align=center;verticalAlign=middle;resizable=0;points=[];autosize=1;strokeColor=none;fillColor=none;" vertex="1" parent="1">
          <mxGeometry x="-190" y="550" width="90" height="30" as="geometry" />
        </mxCell>
        <mxCell id="nU_rdTN2ys85tmJCLOdz-15" value="Promtail&lt;br&gt;(for monitoring)" style="text;html=1;align=center;verticalAlign=middle;resizable=0;points=[];autosize=1;strokeColor=none;fillColor=none;" vertex="1" parent="1">
          <mxGeometry x="-310" y="540" width="100" height="40" as="geometry" />
        </mxCell>
        <mxCell id="nU_rdTN2ys85tmJCLOdz-16" value="" style="sketch=0;html=1;dashed=0;whitespace=wrap;fillColor=#2875E2;strokeColor=#ffffff;points=[[0.005,0.63,0],[0.1,0.2,0],[0.9,0.2,0],[0.5,0,0],[0.995,0.63,0],[0.72,0.99,0],[0.5,1,0],[0.28,0.99,0]];verticalLabelPosition=bottom;align=center;verticalAlign=top;shape=mxgraph.kubernetes.icon;prIcon=pod" vertex="1" parent="1">
          <mxGeometry x="-280" y="580" width="40" height="40" as="geometry" />
        </mxCell>
        <mxCell id="nU_rdTN2ys85tmJCLOdz-17" value="" style="sketch=0;html=1;dashed=0;whitespace=wrap;fillColor=#2875E2;strokeColor=#ffffff;points=[[0.005,0.63,0],[0.1,0.2,0],[0.9,0.2,0],[0.5,0,0],[0.995,0.63,0],[0.72,0.99,0],[0.5,1,0],[0.28,0.99,0]];verticalLabelPosition=bottom;align=center;verticalAlign=top;shape=mxgraph.kubernetes.icon;prIcon=pod" vertex="1" parent="1">
          <mxGeometry x="-120" y="580" width="40" height="40" as="geometry" />
        </mxCell>
        <mxCell id="nU_rdTN2ys85tmJCLOdz-18" value="" style="sketch=0;html=1;dashed=0;whitespace=wrap;fillColor=#2875E2;strokeColor=#ffffff;points=[[0.005,0.63,0],[0.1,0.2,0],[0.9,0.2,0],[0.5,0,0],[0.995,0.63,0],[0.72,0.99,0],[0.5,1,0],[0.28,0.99,0]];verticalLabelPosition=bottom;align=center;verticalAlign=top;shape=mxgraph.kubernetes.icon;prIcon=pod" vertex="1" parent="1">
          <mxGeometry x="280" y="580" width="40" height="40" as="geometry" />
        </mxCell>
        <mxCell id="nU_rdTN2ys85tmJCLOdz-19" value="Prometheus&lt;br&gt;Operator" style="text;html=1;align=center;verticalAlign=middle;resizable=0;points=[];autosize=1;strokeColor=none;fillColor=none;" vertex="1" parent="1">
          <mxGeometry x="-225" y="740" width="90" height="40" as="geometry" />
        </mxCell>
        <mxCell id="nU_rdTN2ys85tmJCLOdz-20" value="Prometheus" style="text;html=1;align=center;verticalAlign=middle;resizable=0;points=[];autosize=1;strokeColor=none;fillColor=none;" vertex="1" parent="1">
          <mxGeometry x="-145" y="750" width="90" height="30" as="geometry" />
        </mxCell>
        <mxCell id="nU_rdTN2ys85tmJCLOdz-21" value="Grafana" style="text;html=1;align=center;verticalAlign=middle;resizable=0;points=[];autosize=1;strokeColor=none;fillColor=none;" vertex="1" parent="1">
          <mxGeometry x="185" y="750" width="70" height="30" as="geometry" />
        </mxCell>
        <mxCell id="nU_rdTN2ys85tmJCLOdz-22" value="Scalar Manager" style="text;html=1;align=center;verticalAlign=middle;resizable=0;points=[];autosize=1;strokeColor=none;fillColor=none;" vertex="1" parent="1">
          <mxGeometry x="245" y="750" width="110" height="30" as="geometry" />
        </mxCell>
        <mxCell id="nU_rdTN2ys85tmJCLOdz-23" value="Alertmanager" style="text;html=1;align=center;verticalAlign=middle;resizable=0;points=[];autosize=1;strokeColor=none;fillColor=none;" vertex="1" parent="1">
          <mxGeometry x="-70" y="750" width="100" height="30" as="geometry" />
        </mxCell>
        <mxCell id="nU_rdTN2ys85tmJCLOdz-24" value="Loki" style="text;html=1;align=center;verticalAlign=middle;resizable=0;points=[];autosize=1;strokeColor=none;fillColor=none;" vertex="1" parent="1">
          <mxGeometry x="115" y="750" width="50" height="30" as="geometry" />
        </mxCell>
        <mxCell id="nU_rdTN2ys85tmJCLOdz-25" value="Promtail" style="text;html=1;align=center;verticalAlign=middle;resizable=0;points=[];autosize=1;strokeColor=none;fillColor=none;" vertex="1" parent="1">
          <mxGeometry x="25" y="750" width="70" height="30" as="geometry" />
        </mxCell>
        <mxCell id="nU_rdTN2ys85tmJCLOdz-26" value="" style="sketch=0;html=1;dashed=0;whitespace=wrap;fillColor=#2875E2;strokeColor=#ffffff;points=[[0.005,0.63,0],[0.1,0.2,0],[0.9,0.2,0],[0.5,0,0],[0.995,0.63,0],[0.72,0.99,0],[0.5,1,0],[0.28,0.99,0]];verticalLabelPosition=bottom;align=center;verticalAlign=top;shape=mxgraph.kubernetes.icon;prIcon=pod" vertex="1" parent="1">
          <mxGeometry x="280" y="780" width="40" height="40" as="geometry" />
        </mxCell>
        <mxCell id="nU_rdTN2ys85tmJCLOdz-27" value="" style="sketch=0;html=1;dashed=0;whitespace=wrap;fillColor=#2875E2;strokeColor=#ffffff;points=[[0.005,0.63,0],[0.1,0.2,0],[0.9,0.2,0],[0.5,0,0],[0.995,0.63,0],[0.72,0.99,0],[0.5,1,0],[0.28,0.99,0]];verticalLabelPosition=bottom;align=center;verticalAlign=top;shape=mxgraph.kubernetes.icon;prIcon=pod" vertex="1" parent="1">
          <mxGeometry x="-200" y="780" width="40" height="40" as="geometry" />
        </mxCell>
        <mxCell id="nU_rdTN2ys85tmJCLOdz-28" value="" style="sketch=0;html=1;dashed=0;whitespace=wrap;fillColor=#2875E2;strokeColor=#ffffff;points=[[0.005,0.63,0],[0.1,0.2,0],[0.9,0.2,0],[0.5,0,0],[0.995,0.63,0],[0.72,0.99,0],[0.5,1,0],[0.28,0.99,0]];verticalLabelPosition=bottom;align=center;verticalAlign=top;shape=mxgraph.kubernetes.icon;prIcon=pod" vertex="1" parent="1">
          <mxGeometry x="-120" y="780" width="40" height="40" as="geometry" />
        </mxCell>
        <mxCell id="nU_rdTN2ys85tmJCLOdz-29" value="" style="sketch=0;html=1;dashed=0;whitespace=wrap;fillColor=#2875E2;strokeColor=#ffffff;points=[[0.005,0.63,0],[0.1,0.2,0],[0.9,0.2,0],[0.5,0,0],[0.995,0.63,0],[0.72,0.99,0],[0.5,1,0],[0.28,0.99,0]];verticalLabelPosition=bottom;align=center;verticalAlign=top;shape=mxgraph.kubernetes.icon;prIcon=pod" vertex="1" parent="1">
          <mxGeometry x="-40" y="780" width="40" height="40" as="geometry" />
        </mxCell>
        <mxCell id="nU_rdTN2ys85tmJCLOdz-30" value="" style="sketch=0;html=1;dashed=0;whitespace=wrap;fillColor=#2875E2;strokeColor=#ffffff;points=[[0.005,0.63,0],[0.1,0.2,0],[0.9,0.2,0],[0.5,0,0],[0.995,0.63,0],[0.72,0.99,0],[0.5,1,0],[0.28,0.99,0]];verticalLabelPosition=bottom;align=center;verticalAlign=top;shape=mxgraph.kubernetes.icon;prIcon=pod" vertex="1" parent="1">
          <mxGeometry x="40" y="780" width="40" height="40" as="geometry" />
        </mxCell>
        <mxCell id="nU_rdTN2ys85tmJCLOdz-31" value="" style="sketch=0;html=1;dashed=0;whitespace=wrap;fillColor=#2875E2;strokeColor=#ffffff;points=[[0.005,0.63,0],[0.1,0.2,0],[0.9,0.2,0],[0.5,0,0],[0.995,0.63,0],[0.72,0.99,0],[0.5,1,0],[0.28,0.99,0]];verticalLabelPosition=bottom;align=center;verticalAlign=top;shape=mxgraph.kubernetes.icon;prIcon=pod" vertex="1" parent="1">
          <mxGeometry x="120" y="780" width="40" height="40" as="geometry" />
        </mxCell>
        <mxCell id="nU_rdTN2ys85tmJCLOdz-32" value="" style="sketch=0;html=1;dashed=0;whitespace=wrap;fillColor=#2875E2;strokeColor=#ffffff;points=[[0.005,0.63,0],[0.1,0.2,0],[0.9,0.2,0],[0.5,0,0],[0.995,0.63,0],[0.72,0.99,0],[0.5,1,0],[0.28,0.99,0]];verticalLabelPosition=bottom;align=center;verticalAlign=top;shape=mxgraph.kubernetes.icon;prIcon=pod" vertex="1" parent="1">
          <mxGeometry x="200" y="780" width="40" height="40" as="geometry" />
        </mxCell>
        <mxCell id="nU_rdTN2ys85tmJCLOdz-33" value="" style="sketch=0;html=1;dashed=0;whitespace=wrap;fillColor=#2875E2;strokeColor=#ffffff;points=[[0.005,0.63,0],[0.1,0.2,0],[0.9,0.2,0],[0.5,0,0],[0.995,0.63,0],[0.72,0.99,0],[0.5,1,0],[0.28,0.99,0]];verticalLabelPosition=bottom;align=center;verticalAlign=top;shape=mxgraph.kubernetes.icon;prIcon=pod" vertex="1" parent="1">
          <mxGeometry x="280" y="1660" width="40" height="40" as="geometry" />
        </mxCell>
        <mxCell id="nU_rdTN2ys85tmJCLOdz-34" value="" style="sketch=0;html=1;dashed=0;whitespace=wrap;fillColor=#2875E2;strokeColor=#ffffff;points=[[0.005,0.63,0],[0.1,0.2,0],[0.9,0.2,0],[0.5,0,0],[0.995,0.63,0],[0.72,0.99,0],[0.5,1,0],[0.28,0.99,0]];verticalLabelPosition=bottom;align=center;verticalAlign=top;shape=mxgraph.kubernetes.icon;prIcon=pod" vertex="1" parent="1">
          <mxGeometry x="-120" y="1660" width="40" height="40" as="geometry" />
        </mxCell>
        <mxCell id="nU_rdTN2ys85tmJCLOdz-35" value="" style="sketch=0;html=1;dashed=0;whitespace=wrap;fillColor=#2875E2;strokeColor=#ffffff;points=[[0.005,0.63,0],[0.1,0.2,0],[0.9,0.2,0],[0.5,0,0],[0.995,0.63,0],[0.72,0.99,0],[0.5,1,0],[0.28,0.99,0]];verticalLabelPosition=bottom;align=center;verticalAlign=top;shape=mxgraph.kubernetes.icon;prIcon=pod" vertex="1" parent="1">
          <mxGeometry x="-280" y="1660" width="40" height="40" as="geometry" />
        </mxCell>
        <mxCell id="nU_rdTN2ys85tmJCLOdz-36" value="" style="sketch=0;html=1;dashed=0;whitespace=wrap;fillColor=#2875E2;strokeColor=#ffffff;points=[[0.005,0.63,0],[0.1,0.2,0],[0.9,0.2,0],[0.5,0,0],[0.995,0.63,0],[0.72,0.99,0],[0.5,1,0],[0.28,0.99,0]];verticalLabelPosition=bottom;align=center;verticalAlign=top;shape=mxgraph.kubernetes.icon;prIcon=pod" vertex="1" parent="1">
          <mxGeometry x="-200" y="1860" width="40" height="40" as="geometry" />
        </mxCell>
        <mxCell id="nU_rdTN2ys85tmJCLOdz-37" value="" style="sketch=0;html=1;dashed=0;whitespace=wrap;fillColor=#2875E2;strokeColor=#ffffff;points=[[0.005,0.63,0],[0.1,0.2,0],[0.9,0.2,0],[0.5,0,0],[0.995,0.63,0],[0.72,0.99,0],[0.5,1,0],[0.28,0.99,0]];verticalLabelPosition=bottom;align=center;verticalAlign=top;shape=mxgraph.kubernetes.icon;prIcon=pod" vertex="1" parent="1">
          <mxGeometry x="-120" y="1860" width="40" height="40" as="geometry" />
        </mxCell>
        <mxCell id="nU_rdTN2ys85tmJCLOdz-38" value="" style="sketch=0;html=1;dashed=0;whitespace=wrap;fillColor=#2875E2;strokeColor=#ffffff;points=[[0.005,0.63,0],[0.1,0.2,0],[0.9,0.2,0],[0.5,0,0],[0.995,0.63,0],[0.72,0.99,0],[0.5,1,0],[0.28,0.99,0]];verticalLabelPosition=bottom;align=center;verticalAlign=top;shape=mxgraph.kubernetes.icon;prIcon=pod" vertex="1" parent="1">
          <mxGeometry x="-40" y="1860" width="40" height="40" as="geometry" />
        </mxCell>
        <mxCell id="nU_rdTN2ys85tmJCLOdz-39" value="" style="sketch=0;html=1;dashed=0;whitespace=wrap;fillColor=#2875E2;strokeColor=#ffffff;points=[[0.005,0.63,0],[0.1,0.2,0],[0.9,0.2,0],[0.5,0,0],[0.995,0.63,0],[0.72,0.99,0],[0.5,1,0],[0.28,0.99,0]];verticalLabelPosition=bottom;align=center;verticalAlign=top;shape=mxgraph.kubernetes.icon;prIcon=pod" vertex="1" parent="1">
          <mxGeometry x="40" y="1860" width="40" height="40" as="geometry" />
        </mxCell>
        <mxCell id="nU_rdTN2ys85tmJCLOdz-40" value="" style="sketch=0;html=1;dashed=0;whitespace=wrap;fillColor=#2875E2;strokeColor=#ffffff;points=[[0.005,0.63,0],[0.1,0.2,0],[0.9,0.2,0],[0.5,0,0],[0.995,0.63,0],[0.72,0.99,0],[0.5,1,0],[0.28,0.99,0]];verticalLabelPosition=bottom;align=center;verticalAlign=top;shape=mxgraph.kubernetes.icon;prIcon=pod" vertex="1" parent="1">
          <mxGeometry x="120" y="1860" width="40" height="40" as="geometry" />
        </mxCell>
        <mxCell id="nU_rdTN2ys85tmJCLOdz-41" value="" style="sketch=0;html=1;dashed=0;whitespace=wrap;fillColor=#2875E2;strokeColor=#ffffff;points=[[0.005,0.63,0],[0.1,0.2,0],[0.9,0.2,0],[0.5,0,0],[0.995,0.63,0],[0.72,0.99,0],[0.5,1,0],[0.28,0.99,0]];verticalLabelPosition=bottom;align=center;verticalAlign=top;shape=mxgraph.kubernetes.icon;prIcon=pod" vertex="1" parent="1">
          <mxGeometry x="200" y="1860" width="40" height="40" as="geometry" />
        </mxCell>
        <mxCell id="nU_rdTN2ys85tmJCLOdz-42" value="" style="sketch=0;html=1;dashed=0;whitespace=wrap;fillColor=#2875E2;strokeColor=#ffffff;points=[[0.005,0.63,0],[0.1,0.2,0],[0.9,0.2,0],[0.5,0,0],[0.995,0.63,0],[0.72,0.99,0],[0.5,1,0],[0.28,0.99,0]];verticalLabelPosition=bottom;align=center;verticalAlign=top;shape=mxgraph.kubernetes.icon;prIcon=pod" vertex="1" parent="1">
          <mxGeometry x="280" y="1860" width="40" height="40" as="geometry" />
        </mxCell>
        <mxCell id="nU_rdTN2ys85tmJCLOdz-43" value="Prometheus" style="text;html=1;align=center;verticalAlign=middle;resizable=0;points=[];autosize=1;strokeColor=none;fillColor=none;" vertex="1" parent="1">
          <mxGeometry x="-145" y="1830" width="90" height="30" as="geometry" />
        </mxCell>
        <mxCell id="nU_rdTN2ys85tmJCLOdz-44" value="Alertmanager" style="text;html=1;align=center;verticalAlign=middle;resizable=0;points=[];autosize=1;strokeColor=none;fillColor=none;" vertex="1" parent="1">
          <mxGeometry x="-70" y="1830" width="100" height="30" as="geometry" />
        </mxCell>
        <mxCell id="nU_rdTN2ys85tmJCLOdz-45" value="Promtail" style="text;html=1;align=center;verticalAlign=middle;resizable=0;points=[];autosize=1;strokeColor=none;fillColor=none;" vertex="1" parent="1">
          <mxGeometry x="25" y="1830" width="70" height="30" as="geometry" />
        </mxCell>
        <mxCell id="nU_rdTN2ys85tmJCLOdz-46" value="Loki" style="text;html=1;align=center;verticalAlign=middle;resizable=0;points=[];autosize=1;strokeColor=none;fillColor=none;" vertex="1" parent="1">
          <mxGeometry x="115" y="1830" width="50" height="30" as="geometry" />
        </mxCell>
        <mxCell id="nU_rdTN2ys85tmJCLOdz-47" value="Grafana" style="text;html=1;align=center;verticalAlign=middle;resizable=0;points=[];autosize=1;strokeColor=none;fillColor=none;" vertex="1" parent="1">
          <mxGeometry x="185" y="1830" width="70" height="30" as="geometry" />
        </mxCell>
        <mxCell id="nU_rdTN2ys85tmJCLOdz-48" value="Scalar Manager" style="text;html=1;align=center;verticalAlign=middle;resizable=0;points=[];autosize=1;strokeColor=none;fillColor=none;" vertex="1" parent="1">
          <mxGeometry x="245" y="1830" width="110" height="30" as="geometry" />
        </mxCell>
      </root>
    </mxGraphModel>
  </diagram>
</mxfile>
